<svg id="svg" version="1.1" xmlns="http://www.w3.org/2000/svg" xmlns:xlink="http://www.w3.org/1999/xlink" width="400" height="400" viewBox="0, 0, 400,400"><g id="svgg"><path id="path0" d="M164.203 112.007 C 158.583 113.371,151.992 119.342,150.701 124.242 C 150.483 125.066,149.987 126.454,149.597 127.325 C 146.469 134.320,151.525 152.459,159.913 164.336 C 167.017 174.394,173.372 184.536,176.575 190.926 C 183.009 203.760,180.162 213.338,170.461 211.499 C 165.200 210.501,163.715 208.257,163.343 200.743 C 162.975 193.318,162.992 193.333,155.419 193.333 C 147.398 193.333,147.145 193.563,147.522 200.488 C 148.418 216.951,156.835 225.655,171.852 225.647 C 176.449 225.644,177.352 225.486,182.037 223.863 C 185.591 222.631,188.894 218.000,187.037 216.852 C 186.307 216.401,186.687 215.926,187.778 215.926 C 188.389 215.926,188.889 215.777,188.889 215.596 C 188.889 215.414,189.286 215.166,189.771 215.044 C 191.353 214.647,192.518 210.948,193.275 203.921 C 194.344 194.003,189.900 183.331,176.220 162.963 C 162.934 143.182,160.832 138.547,162.345 132.361 C 163.592 127.266,165.659 125.426,170.343 125.243 C 176.941 124.984,179.190 127.452,179.540 135.331 C 179.795 141.074,179.809 141.089,184.493 140.835 C 186.402 140.731,188.137 140.509,188.350 140.341 C 188.563 140.173,189.378 140.255,190.162 140.525 C 193.499 141.672,194.248 140.421,193.973 134.151 C 193.529 124.003,190.387 118.129,183.116 113.854 C 179.431 111.687,169.516 110.719,164.203 112.007 M206.835 113.872 C 205.914 114.793,205.769 115.515,205.898 118.519 C 205.952 119.769,206.201 120.393,206.895 121.019 C 207.907 121.931,207.743 122.767,206.610 122.471 C 205.920 122.290,205.902 122.525,206.055 129.938 C 206.142 134.148,206.198 137.926,206.179 138.333 C 206.126 139.448,206.136 152.841,206.197 161.852 C 206.226 166.231,206.168 172.464,206.067 175.703 C 205.957 179.248,206.060 182.933,206.326 184.962 C 206.816 188.708,206.846 194.645,206.463 211.667 C 206.146 225.713,205.925 225.037,210.800 224.935 C 212.499 224.900,215.240 224.856,216.892 224.837 C 220.496 224.797,221.633 224.075,220.735 222.396 C 220.353 221.682,220.338 221.365,220.674 221.030 C 221.338 220.366,221.235 216.654,220.539 216.145 C 220.028 215.771,220.051 215.534,220.751 213.952 C 221.489 212.283,221.525 211.739,221.347 204.700 C 220.861 185.347,221.056 177.648,222.037 177.475 C 222.444 177.404,222.975 177.092,223.216 176.784 C 223.815 176.016,224.444 176.496,224.444 177.721 C 224.444 178.277,224.784 179.393,225.199 180.199 C 225.614 181.006,226.123 182.417,226.331 183.333 C 226.539 184.250,227.342 186.500,228.116 188.333 C 228.890 190.167,229.985 193.333,230.550 195.370 C 231.114 197.407,231.692 199.241,231.834 199.444 C 231.975 199.648,232.109 200.171,232.131 200.607 C 232.188 201.760,234.370 209.003,235.605 212.139 C 236.189 213.621,236.667 215.140,236.667 215.514 C 236.667 215.887,237.058 216.770,237.537 217.476 C 238.016 218.182,238.499 219.572,238.612 220.571 C 238.769 221.968,239.070 222.610,239.924 223.374 L 241.033 224.364 247.090 224.184 C 253.757 223.987,254.585 223.743,254.998 221.859 C 255.350 220.259,251.672 210.990,250.365 210.182 C 250.147 210.047,250.069 209.627,250.189 209.246 C 250.495 208.283,249.736 205.676,249.076 205.422 C 248.776 205.307,248.619 204.985,248.726 204.705 C 249.137 203.634,242.275 186.460,241.161 185.772 C 240.930 185.629,240.741 185.032,240.741 184.444 C 240.741 183.857,240.574 183.274,240.370 183.148 C 240.167 183.022,240.000 182.548,240.000 182.095 C 240.000 181.642,239.667 180.322,239.259 179.163 C 238.254 176.304,238.273 176.223,240.278 174.820 C 243.011 172.906,244.444 171.418,244.444 170.495 C 244.444 169.936,244.614 169.718,244.950 169.847 C 248.545 171.227,253.838 147.502,251.083 142.354 C 250.760 141.751,250.742 141.370,251.023 141.031 C 251.523 140.427,251.546 135.524,251.059 133.333 C 250.855 132.417,250.631 130.991,250.562 130.165 C 250.196 125.822,246.953 120.179,243.193 117.345 C 237.653 113.170,236.589 112.963,220.646 112.963 L 207.744 112.963 206.835 113.872 M231.928 127.470 C 235.585 129.484,236.483 133.131,236.476 145.926 C 236.469 157.570,236.171 159.386,234.050 160.716 C 232.875 161.453,232.652 161.774,232.828 162.476 C 233.054 163.376,232.061 163.776,231.770 162.902 C 231.660 162.574,231.330 162.573,230.400 162.897 C 227.573 163.883,222.366 163.898,221.733 162.922 C 220.206 160.566,218.789 133.975,219.867 127.885 L 220.077 126.695 223.094 126.550 C 228.179 126.305,230.196 126.515,231.928 127.470 M191.111 194.793 C 191.111 195.230,190.389 195.697,190.123 195.432 C 189.858 195.167,190.326 194.444,190.763 194.444 C 190.954 194.444,191.111 194.601,191.111 194.793 M64.034 299.933 C 60.468 301.439,58.568 307.320,60.491 310.899 C 60.811 311.496,60.989 312.121,60.885 312.288 C 60.782 312.456,60.883 312.593,61.111 312.593 C 61.339 312.593,61.422 312.759,61.296 312.963 C 61.170 313.167,61.254 313.333,61.481 313.333 C 61.709 313.333,61.793 313.500,61.667 313.704 C 61.541 313.907,61.624 314.074,61.852 314.074 C 62.080 314.074,62.163 314.241,62.037 314.444 C 61.911 314.648,62.012 314.815,62.262 314.815 C 62.512 314.815,62.615 314.916,62.491 315.039 C 62.279 315.252,62.498 315.601,63.638 316.865 C 63.907 317.163,64.039 317.407,63.932 317.407 C 63.825 317.407,64.155 317.825,64.666 318.336 C 65.177 318.847,65.493 319.431,65.368 319.633 C 65.244 319.835,65.309 320.000,65.513 320.000 C 65.898 320.000,66.418 320.836,67.819 323.704 C 69.707 327.567,69.442 329.979,67.130 329.994 C 65.771 330.004,64.815 328.736,64.815 326.926 C 64.815 324.858,64.341 324.444,61.976 324.444 C 59.237 324.444,58.403 326.613,59.937 329.745 C 60.218 330.318,60.355 330.880,60.241 330.993 C 60.128 331.107,60.236 331.411,60.481 331.670 C 60.726 331.928,61.239 332.572,61.621 333.100 C 62.003 333.628,62.461 333.970,62.639 333.860 C 62.817 333.750,62.963 333.846,62.963 334.074 C 62.963 334.302,63.118 334.392,63.308 334.275 C 63.497 334.158,63.748 334.216,63.864 334.404 C 63.980 334.592,64.408 334.658,64.815 334.552 C 65.222 334.445,65.555 334.502,65.555 334.679 C 65.555 335.123,69.006 334.977,69.907 334.494 C 70.312 334.277,70.737 334.194,70.851 334.308 C 70.966 334.423,71.408 333.833,71.834 332.999 C 72.259 332.164,72.749 331.481,72.922 331.481 C 73.095 331.481,73.430 330.500,73.666 329.300 C 74.425 325.444,73.099 321.834,68.345 314.815 C 63.593 307.799,63.064 304.308,66.796 304.604 C 68.544 304.743,68.889 305.053,68.889 306.486 C 68.889 308.887,69.462 309.538,71.327 309.255 C 72.227 309.118,72.963 309.141,72.963 309.306 C 72.963 309.471,73.206 309.513,73.503 309.399 C 74.553 308.996,74.061 304.056,72.807 302.413 C 71.072 300.138,66.564 298.864,64.034 299.933 M282.196 299.779 C 282.101 299.874,281.610 300.010,281.104 300.081 C 279.763 300.270,277.778 301.229,277.778 301.687 C 277.778 301.905,277.454 302.430,277.059 302.854 C 276.664 303.278,276.442 303.726,276.566 303.849 C 276.689 303.973,276.586 304.074,276.336 304.074 C 276.086 304.074,275.985 304.241,276.111 304.444 C 276.237 304.648,276.205 304.815,276.040 304.815 C 275.792 304.815,275.773 306.951,275.940 316.111 C 275.944 316.315,275.857 318.065,275.747 320.000 C 275.615 322.332,275.665 323.269,275.896 322.778 C 276.210 322.109,276.247 322.136,276.270 323.056 C 276.285 323.616,276.171 324.074,276.019 324.074 C 275.866 324.074,275.725 324.824,275.705 325.741 C 275.686 326.657,275.813 327.407,275.988 327.407 C 276.164 327.407,276.219 327.907,276.111 328.519 C 275.989 329.209,276.073 329.630,276.331 329.630 C 276.559 329.630,276.650 329.880,276.533 330.185 C 276.415 330.491,276.491 330.741,276.700 330.741 C 276.909 330.741,276.978 330.907,276.852 331.111 C 276.726 331.315,276.799 331.481,277.015 331.481 C 277.231 331.481,277.407 331.694,277.407 331.955 C 277.407 334.018,283.625 335.654,286.386 334.318 C 289.406 332.856,290.410 331.135,290.427 327.391 C 290.502 311.081,290.412 306.716,289.969 305.069 C 289.191 302.182,287.462 300.577,284.767 300.243 C 284.080 300.157,283.260 299.979,282.944 299.847 C 282.627 299.715,282.291 299.684,282.196 299.779 M306.149 300.259 C 304.800 300.966,303.190 302.655,303.058 303.502 C 302.995 303.901,302.823 304.318,302.676 304.428 C 302.310 304.702,302.338 308.960,302.709 309.537 C 302.873 309.792,302.904 310.167,302.778 310.370 C 302.652 310.574,302.735 310.741,302.963 310.741 C 303.191 310.741,303.263 310.926,303.123 311.153 C 302.983 311.379,303.064 311.686,303.304 311.834 C 303.544 311.982,303.767 312.452,303.799 312.878 C 303.831 313.304,303.990 313.571,304.151 313.471 C 304.429 313.299,304.507 313.483,304.593 314.520 C 304.613 314.766,305.014 315.350,305.483 315.820 C 305.952 316.289,306.245 316.820,306.134 317.000 C 306.023 317.179,306.324 317.583,306.804 317.897 C 307.283 318.211,307.780 318.991,307.907 319.629 C 308.037 320.276,308.305 320.687,308.514 320.558 C 308.721 320.431,308.889 320.669,308.889 321.089 C 308.889 321.509,309.051 321.852,309.250 321.852 C 309.448 321.852,309.869 322.352,310.185 322.963 C 310.501 323.574,310.660 324.074,310.539 324.074 C 310.417 324.074,310.589 324.346,310.921 324.677 C 311.253 325.009,311.436 325.509,311.329 325.788 C 311.222 326.068,311.296 326.296,311.493 326.296 C 312.079 326.296,311.901 328.787,311.270 329.418 C 309.617 331.071,307.570 329.699,307.133 326.645 L 306.845 324.630 304.902 324.518 C 303.717 324.449,302.706 324.594,302.313 324.888 C 301.633 325.396,301.360 327.037,301.956 327.037 C 302.147 327.037,302.235 327.620,302.152 328.333 C 302.069 329.046,302.144 329.630,302.318 329.630 C 302.493 329.630,302.533 329.798,302.406 330.003 C 302.279 330.208,302.437 330.638,302.758 330.959 C 303.078 331.279,303.230 331.720,303.094 331.939 C 302.959 332.158,303.010 332.237,303.208 332.114 C 303.406 331.992,303.848 332.367,304.191 332.947 C 304.771 333.929,306.733 334.995,307.166 334.562 C 307.272 334.457,307.567 334.499,307.822 334.657 C 309.571 335.738,313.754 334.414,314.395 332.576 C 314.615 331.943,314.959 331.527,315.158 331.650 C 315.756 332.019,316.392 328.863,316.202 326.470 C 315.972 323.582,314.757 320.994,310.870 315.119 C 306.157 307.995,305.583 305.109,308.804 304.733 C 310.257 304.563,311.788 305.500,311.314 306.268 C 311.178 306.487,311.266 306.667,311.508 306.667 C 311.805 306.667,311.880 307.091,311.737 307.971 C 311.621 308.689,311.671 309.186,311.848 309.076 C 312.026 308.967,312.272 309.040,312.395 309.239 C 312.534 309.464,312.950 309.475,313.492 309.269 C 313.972 309.087,314.733 309.034,315.183 309.151 C 317.529 309.765,316.828 303.966,314.244 301.382 C 312.534 299.672,308.372 299.095,306.149 300.259 M86.305 300.724 C 85.992 301.308,85.795 324.205,86.027 333.041 C 86.068 334.596,86.751 334.927,89.576 334.761 C 91.595 334.641,91.597 334.631,91.288 326.312 L 91.029 319.340 92.675 319.207 C 95.761 318.958,95.556 318.427,95.556 326.648 C 95.556 334.875,95.564 334.901,98.199 335.078 C 101.067 335.270,100.955 335.968,101.009 317.552 C 101.035 308.587,100.926 301.040,100.767 300.783 C 100.413 300.210,97.802 299.821,96.504 300.146 L 95.556 300.384 95.556 307.461 L 95.556 314.537 94.398 314.306 C 93.762 314.178,92.775 314.074,92.206 314.074 L 91.171 314.074 91.128 307.522 C 91.101 303.412,90.935 300.790,90.682 300.485 C 90.013 299.679,86.770 299.856,86.305 300.724 M117.613 300.277 C 112.802 300.436,112.894 300.336,113.145 305.147 C 113.257 307.307,113.417 314.491,113.500 321.111 C 113.691 336.327,112.938 334.891,120.668 334.791 C 125.991 334.722,126.306 334.573,126.356 332.090 C 126.404 329.698,126.294 329.630,122.423 329.630 L 118.964 329.630 118.755 327.130 C 118.641 325.755,118.591 323.380,118.645 321.852 L 118.743 319.074 121.266 319.027 C 124.173 318.972,124.431 318.746,124.439 316.243 C 124.445 314.207,124.230 314.074,120.928 314.074 L 118.584 314.074 118.444 309.907 C 118.275 304.889,118.043 305.231,121.669 305.156 C 125.513 305.076,125.772 304.921,125.876 302.638 C 125.976 300.442,125.410 299.956,122.895 300.078 C 122.016 300.120,119.639 300.210,117.613 300.277 M138.093 300.262 C 136.745 300.469,136.733 300.580,136.915 310.984 C 137.131 323.266,137.378 333.796,137.462 334.290 C 137.593 335.054,141.439 334.845,141.864 334.052 C 142.110 333.592,142.168 329.574,142.032 322.522 C 141.857 313.528,142.000 310.135,142.446 312.696 C 142.810 314.788,143.090 316.034,143.838 318.889 C 144.132 320.009,144.480 321.551,144.610 322.315 C 144.741 323.079,144.966 323.704,145.109 323.705 C 145.253 323.706,145.409 324.248,145.456 324.909 C 145.548 326.204,145.689 326.904,146.033 327.778 C 146.153 328.083,146.532 329.532,146.874 330.998 C 147.572 333.980,148.694 334.952,151.113 334.671 C 153.180 334.430,153.022 336.194,152.963 314.091 C 152.925 299.484,153.021 300.000,150.347 300.000 C 147.971 300.000,148.082 299.512,148.062 310.113 C 148.053 315.245,147.971 319.111,147.881 318.704 C 147.791 318.296,147.218 315.963,146.607 313.519 C 145.997 311.074,145.421 308.657,145.328 308.148 C 145.235 307.639,145.009 306.722,144.826 306.111 C 144.643 305.500,144.304 304.041,144.072 302.869 C 143.516 300.055,142.454 299.592,138.093 300.262 M165.603 300.498 C 165.246 300.929,165.228 332.530,165.584 334.381 C 165.702 334.993,169.462 334.761,170.122 334.100 C 170.642 333.580,170.802 301.697,170.290 300.648 C 169.893 299.834,166.251 299.717,165.603 300.498 M182.795 300.318 C 181.832 300.528,181.688 300.734,181.591 302.038 C 181.384 304.822,181.536 305.000,184.130 305.000 L 186.442 305.000 186.532 319.052 C 186.619 332.687,186.742 335.041,187.347 334.667 C 187.506 334.569,188.593 334.450,189.762 334.402 L 191.888 334.316 191.708 320.351 C 191.492 303.641,191.310 304.815,194.110 304.815 C 196.559 304.815,196.832 304.465,196.600 301.631 L 196.481 300.185 190.185 300.132 C 186.722 300.103,183.397 300.187,182.795 300.318 M208.568 301.931 C 208.360 303.008,208.083 304.806,207.954 305.926 C 207.825 307.046,207.655 308.380,207.577 308.889 C 207.384 310.141,206.257 318.798,206.106 320.185 C 206.040 320.796,205.565 324.016,205.051 327.340 C 203.898 334.799,204.076 335.314,207.582 334.656 C 209.207 334.351,209.132 334.506,209.903 329.857 C 210.316 327.368,210.725 325.911,211.018 325.885 C 211.273 325.862,211.815 325.844,212.222 325.844 C 215.459 325.844,215.234 325.519,215.745 330.920 C 216.027 333.902,216.663 334.815,218.456 334.815 C 221.557 334.815,221.608 334.396,219.836 323.471 C 218.364 314.400,217.221 307.113,216.852 304.444 C 216.725 303.528,216.500 302.194,216.352 301.481 L 216.082 300.185 212.515 300.080 L 208.947 299.974 208.568 301.931 M250.370 300.214 C 249.756 300.408,249.520 323.398,250.122 324.352 C 250.288 324.615,250.245 324.815,250.022 324.815 C 249.806 324.815,249.630 325.065,249.630 325.370 C 249.630 325.676,249.796 325.926,250.000 325.926 C 250.204 325.926,250.370 326.176,250.370 326.481 C 250.370 326.787,250.245 327.037,250.093 327.037 C 249.511 327.036,249.782 333.864,250.381 334.316 C 250.921 334.723,254.282 334.731,254.686 334.326 C 254.792 334.220,254.874 331.041,254.868 327.261 C 254.861 323.335,255.006 320.296,255.206 320.172 C 255.511 319.984,255.728 320.757,255.599 321.574 C 255.575 321.727,255.732 321.852,255.948 321.852 C 256.164 321.852,256.225 322.037,256.086 322.264 C 255.946 322.490,256.030 322.798,256.273 322.949 C 256.517 323.099,256.763 323.456,256.821 323.741 C 256.878 324.026,257.048 324.543,257.199 324.890 C 257.350 325.236,257.365 325.695,257.233 325.908 C 257.101 326.122,257.189 326.296,257.429 326.296 C 257.682 326.296,257.783 326.606,257.670 327.037 C 257.564 327.444,257.623 327.778,257.801 327.778 C 257.979 327.778,258.029 328.028,257.912 328.333 C 257.794 328.639,257.878 328.889,258.097 328.889 C 258.316 328.889,258.399 329.139,258.282 329.444 C 258.165 329.750,258.217 330.000,258.398 330.000 C 258.579 330.000,258.763 330.428,258.806 330.950 C 258.849 331.473,259.145 332.161,259.464 332.479 C 259.782 332.798,259.956 333.284,259.850 333.561 C 259.452 334.596,261.274 334.868,264.352 334.232 C 265.383 334.019,265.423 333.128,264.498 331.014 C 263.783 329.381,261.834 324.338,260.827 321.517 L 260.245 319.886 261.326 318.899 C 265.245 315.322,265.065 303.869,261.047 301.210 C 259.656 300.289,252.301 299.603,250.370 300.214 M329.815 300.314 C 329.407 300.384,328.954 300.554,328.808 300.691 C 328.473 301.004,328.295 306.376,328.603 306.874 C 328.729 307.077,328.828 312.353,328.824 318.599 C 328.820 324.844,328.942 330.157,329.095 330.405 C 329.262 330.674,329.219 330.760,328.990 330.618 C 328.747 330.468,328.649 330.821,328.724 331.579 C 328.788 332.238,328.852 333.125,328.865 333.549 C 328.895 334.519,329.052 334.543,335.477 334.591 C 341.532 334.635,341.547 334.628,341.393 331.667 L 341.296 329.815 337.725 329.709 L 334.154 329.604 333.920 328.043 C 333.792 327.184,333.704 325.231,333.725 323.704 C 333.746 322.176,333.757 320.468,333.749 319.907 L 333.734 318.889 336.457 318.889 C 339.478 318.889,339.630 318.767,339.630 316.340 C 339.630 314.416,339.124 314.074,336.277 314.074 L 333.814 314.074 333.600 309.727 C 333.346 304.569,332.900 305.219,336.734 305.153 C 340.577 305.088,340.749 304.996,340.919 302.904 C 341.137 300.228,341.051 300.185,335.476 300.185 C 332.770 300.185,330.222 300.243,329.815 300.314 M257.965 305.406 C 258.508 305.762,258.785 306.247,258.699 306.692 C 258.623 307.086,258.718 307.407,258.910 307.407 C 259.102 307.407,259.259 308.657,259.259 310.185 C 259.259 312.157,259.125 312.965,258.796 312.969 C 258.431 312.973,258.430 313.035,258.791 313.265 C 259.567 313.758,258.325 315.069,256.813 315.353 C 254.903 315.711,254.827 315.526,254.576 309.944 L 254.350 304.938 255.722 304.887 C 256.477 304.858,257.486 305.092,257.965 305.406 M284.607 305.400 C 284.929 305.722,285.097 306.139,284.982 306.326 C 284.866 306.513,284.922 306.667,285.107 306.667 C 285.302 306.667,285.431 311.276,285.414 317.593 C 285.397 324.115,285.245 328.519,285.038 328.519 C 284.847 328.519,284.795 328.622,284.921 328.748 C 285.318 329.145,284.166 330.000,283.232 330.000 C 281.506 330.000,280.565 327.690,280.744 323.889 C 280.856 321.518,280.859 310.351,280.748 308.432 C 280.573 305.398,282.830 303.624,284.607 305.400 M212.893 309.167 C 212.858 310.121,213.695 316.458,214.312 319.907 L 214.527 321.111 212.695 321.111 L 210.863 321.111 211.172 318.796 C 211.342 317.523,211.554 315.981,211.644 315.370 C 211.836 314.062,212.311 309.648,212.331 308.981 C 212.339 308.727,212.474 308.519,212.631 308.519 C 212.788 308.519,212.906 308.810,212.893 309.167 " stroke="none" fill="#447c5c" fill-rule="evenodd"></path><path id="path1" d="M186.852 66.169 C 141.497 72.740,107.328 105.286,98.842 150.000 C 97.647 156.292,97.509 179.647,98.631 185.556 C 100.149 193.550,102.770 202.613,105.024 207.662 C 107.317 212.800,110.873 219.674,112.746 222.593 C 116.141 227.883,117.687 230.016,121.296 234.392 C 135.345 251.427,156.546 264.165,178.704 268.884 C 191.037 271.511,210.518 271.501,221.827 268.861 C 223.572 268.453,225.500 268.029,226.111 267.919 C 227.898 267.595,238.255 264.079,239.167 263.487 C 239.625 263.189,240.000 263.023,240.000 263.118 C 240.000 263.928,252.167 257.348,257.963 253.404 C 264.134 249.204,277.407 237.526,277.407 236.295 C 277.407 236.171,278.124 235.300,279.000 234.360 C 283.711 229.300,294.166 212.324,294.977 208.416 C 295.069 207.975,295.211 207.610,296.419 204.722 C 296.738 203.958,296.904 203.333,296.788 203.333 C 296.671 203.333,296.783 203.083,297.037 202.778 C 297.291 202.472,297.374 202.222,297.222 202.222 C 297.070 202.222,297.117 202.014,297.327 201.759 C 297.679 201.330,299.720 194.700,300.148 192.593 C 300.251 192.083,300.661 190.083,301.058 188.148 C 302.263 182.278,302.307 181.695,302.450 169.630 C 302.595 157.364,302.393 154.665,300.762 147.037 C 300.077 143.834,299.839 142.855,299.055 140.000 C 288.884 102.997,257.126 74.389,217.963 66.951 C 214.050 66.208,190.646 65.620,186.852 66.169 M180.437 112.293 C 188.225 115.218,193.012 121.564,194.068 130.361 C 195.136 139.261,194.068 142.238,190.275 140.934 C 189.554 140.686,188.739 140.604,188.464 140.751 C 188.188 140.898,186.414 141.102,184.522 141.204 C 179.543 141.473,179.500 141.425,179.248 135.235 C 178.943 127.724,176.724 125.350,170.276 125.639 C 165.772 125.840,164.092 127.214,162.756 131.787 C 160.923 138.062,163.245 143.185,177.528 164.369 C 191.830 185.584,195.545 196.468,192.836 209.228 C 192.108 212.661,191.000 215.185,190.223 215.185 C 189.947 215.185,189.514 215.434,189.262 215.737 C 188.972 216.086,188.480 216.208,187.921 216.067 C 187.387 215.934,187.037 216.008,187.037 216.256 C 187.037 216.482,187.204 216.667,187.407 216.667 C 188.798 216.667,187.109 220.756,184.916 222.700 C 182.942 224.450,177.094 225.938,172.137 225.951 C 157.557 225.991,149.314 218.377,147.448 203.148 C 146.303 193.805,146.596 193.423,155.153 193.098 L 161.077 192.872 162.144 193.939 C 163.179 194.974,163.217 195.147,163.442 199.817 C 163.841 208.101,165.764 210.864,171.493 211.384 C 180.423 212.194,182.399 203.218,176.064 190.618 C 172.838 184.200,166.851 174.676,159.528 164.314 C 155.923 159.211,152.031 150.915,149.774 143.518 C 148.464 139.226,148.200 129.074,149.352 127.313 C 149.708 126.768,150.004 125.941,150.008 125.476 C 150.038 122.317,155.399 115.688,159.908 113.234 C 164.376 110.802,175.150 110.309,180.437 112.293 M235.951 113.184 C 243.223 115.321,247.984 120.049,250.276 127.407 C 251.695 131.964,252.486 140.490,251.544 141.073 C 251.263 141.246,251.307 141.800,251.693 142.919 C 252.289 144.649,252.308 151.847,251.716 151.850 C 251.540 151.851,251.512 152.227,251.655 152.685 C 252.805 156.367,247.756 170.370,245.278 170.370 C 245.023 170.370,244.835 170.495,244.859 170.648 C 244.990 171.482,244.564 171.962,241.944 173.931 C 240.366 175.118,239.001 176.140,238.911 176.201 C 238.822 176.263,239.113 177.446,239.559 178.831 C 240.005 180.216,240.370 181.702,240.370 182.134 C 240.370 182.566,240.537 183.022,240.741 183.148 C 240.944 183.274,241.111 183.653,241.111 183.990 C 241.111 184.327,241.763 185.859,242.561 187.394 C 245.118 192.317,249.458 203.764,249.110 204.669 C 249.001 204.953,249.082 205.185,249.290 205.185 C 249.839 205.185,250.804 207.702,250.690 208.840 C 250.633 209.410,251.002 210.431,251.576 211.296 C 252.116 212.111,253.233 214.484,254.057 216.568 C 256.827 223.576,256.425 224.032,247.216 224.335 L 240.543 224.553 239.345 223.190 C 238.392 222.104,238.148 221.501,238.148 220.230 C 238.148 219.109,237.930 218.436,237.415 217.970 C 237.011 217.604,236.569 216.704,236.433 215.968 C 236.296 215.232,235.867 213.887,235.480 212.979 C 234.367 210.370,231.482 200.670,231.710 200.301 C 231.823 200.118,231.752 199.767,231.552 199.521 C 231.351 199.275,230.981 198.324,230.729 197.407 C 229.700 193.668,228.471 190.014,227.240 187.037 C 226.524 185.306,225.936 183.553,225.932 183.143 C 225.929 182.732,225.604 181.797,225.211 181.063 C 224.818 180.330,224.383 179.124,224.244 178.384 C 224.020 177.187,223.333 176.452,223.333 177.407 C 223.333 177.611,222.908 177.778,222.387 177.778 L 221.441 177.778 221.444 185.093 C 221.448 193.239,221.455 193.713,221.725 204.504 C 221.905 211.719,221.871 212.257,221.132 213.928 C 220.444 215.484,220.417 215.738,220.915 216.016 C 221.610 216.405,221.712 220.362,221.045 221.030 C 220.709 221.365,220.728 221.692,221.128 222.440 C 221.942 223.960,220.219 225.319,217.916 224.974 C 217.018 224.839,214.986 224.939,213.400 225.197 C 209.952 225.757,208.026 225.467,206.757 224.198 L 205.818 223.259 206.101 211.907 C 206.505 195.708,206.471 188.859,205.963 184.630 C 205.705 182.477,205.596 178.677,205.703 175.556 C 205.804 172.602,205.859 166.102,205.824 161.111 C 205.756 151.119,205.752 139.489,205.816 138.333 C 205.839 137.926,205.780 134.030,205.685 129.677 L 205.513 121.761 206.553 122.012 L 207.593 122.263 206.574 121.302 C 205.089 119.900,205.054 115.468,206.514 113.732 L 207.473 112.593 220.706 112.593 C 231.737 112.593,234.274 112.691,235.951 113.184 M223.277 126.941 C 220.712 127.055,220.424 127.145,220.242 127.885 C 219.475 131.012,220.442 158.327,221.424 161.296 L 222.037 163.148 225.000 163.137 C 227.913 163.127,232.222 162.355,232.222 161.843 C 232.222 161.700,232.875 161.130,233.674 160.576 C 235.862 159.060,236.090 157.668,236.102 145.741 C 236.116 130.588,234.183 126.364,227.407 126.743 C 226.694 126.783,224.836 126.872,223.277 126.941 M249.748 304.074 C 249.748 305.398,249.815 305.940,249.898 305.278 C 249.980 304.616,249.980 303.532,249.898 302.870 C 249.815 302.208,249.748 302.750,249.748 304.074 M249.723 316.481 C 249.727 317.296,249.803 317.586,249.892 317.125 C 249.980 316.665,249.977 315.998,249.884 315.644 C 249.791 315.290,249.719 315.667,249.723 316.481 M249.759 330.741 C 249.759 332.472,249.823 333.181,249.901 332.315 C 249.979 331.449,249.979 330.032,249.901 329.167 C 249.823 328.301,249.759 329.009,249.759 330.741 " stroke="none" fill="#7bb3a3" fill-rule="evenodd"></path><path id="path2" d="M221.381 126.934 C 222.038 127.016,223.205 127.017,223.973 126.937 C 224.742 126.857,224.204 126.790,222.778 126.788 C 221.352 126.787,220.723 126.852,221.381 126.934 M219.771 136.481 C 219.772 138.926,219.832 139.878,219.904 138.597 C 219.977 137.315,219.976 135.315,219.903 134.152 C 219.830 132.989,219.770 134.037,219.771 136.481 M194.175 136.296 C 194.175 137.213,194.247 137.588,194.335 137.130 C 194.424 136.671,194.424 135.921,194.335 135.463 C 194.247 135.005,194.175 135.380,194.175 136.296 M205.661 177.593 C 205.664 178.611,205.736 178.984,205.821 178.421 C 205.906 177.858,205.904 177.025,205.816 176.569 C 205.728 176.113,205.659 176.574,205.661 177.593 M221.634 205.926 C 221.634 209.491,221.689 210.949,221.757 209.167 C 221.825 207.384,221.825 204.468,221.757 202.685 C 221.689 200.903,221.634 202.361,221.634 205.926 " stroke="none" fill="#5c947d" fill-rule="evenodd"></path><path id="path3" d="M155.356 116.759 L 153.519 118.704 155.463 116.866 C 156.532 115.855,157.407 114.980,157.407 114.921 C 157.407 114.645,157.064 114.952,155.356 116.759 M187.392 116.759 C 188.300 117.727,189.092 118.519,189.151 118.519 C 189.429 118.519,189.135 118.186,187.500 116.651 L 185.741 115.000 187.392 116.759 M245.556 119.074 C 246.247 119.787,246.895 120.370,246.997 120.370 C 247.099 120.370,246.617 119.787,245.926 119.074 C 245.235 118.361,244.586 117.778,244.484 117.778 C 244.382 117.778,244.865 118.361,245.556 119.074 M205.712 129.259 C 205.712 133.435,205.766 135.144,205.832 133.056 C 205.898 130.968,205.898 127.551,205.832 125.463 C 205.766 123.375,205.712 125.083,205.712 129.259 M169.907 125.453 C 170.569 125.535,171.653 125.535,172.315 125.453 C 172.977 125.371,172.435 125.304,171.111 125.304 C 169.787 125.304,169.245 125.371,169.907 125.453 M226.759 126.552 C 227.116 126.645,227.699 126.645,228.056 126.552 C 228.412 126.458,228.120 126.382,227.407 126.382 C 226.694 126.382,226.403 126.458,226.759 126.552 M194.167 133.519 C 194.172 134.333,194.247 134.623,194.336 134.162 C 194.425 133.702,194.421 133.035,194.329 132.681 C 194.236 132.327,194.163 132.704,194.167 133.519 M205.708 145.556 C 205.708 149.120,205.763 150.579,205.831 148.796 C 205.899 147.014,205.899 144.097,205.831 142.315 C 205.763 140.532,205.708 141.991,205.708 145.556 M236.418 141.667 C 236.419 143.093,236.486 143.631,236.567 142.862 C 236.647 142.094,236.645 140.927,236.564 140.270 C 236.482 139.612,236.416 140.241,236.418 141.667 M186.208 141.003 C 186.669 141.091,187.335 141.088,187.690 140.995 C 188.044 140.903,187.667 140.830,186.852 140.834 C 186.037 140.838,185.747 140.914,186.208 141.003 M251.970 146.296 C 251.970 147.620,252.038 148.162,252.120 147.500 C 252.202 146.838,252.202 145.755,252.120 145.093 C 252.038 144.431,251.970 144.972,251.970 146.296 M236.390 146.111 C 236.394 146.926,236.470 147.216,236.558 146.755 C 236.647 146.294,236.643 145.628,236.551 145.273 C 236.458 144.919,236.386 145.296,236.390 146.111 M206.063 165.556 C 206.063 167.694,206.124 168.569,206.199 167.500 C 206.274 166.431,206.274 164.681,206.199 163.611 C 206.124 162.542,206.063 163.417,206.063 165.556 M205.667 181.111 C 205.667 182.231,205.736 182.690,205.821 182.130 C 205.906 181.569,205.906 180.653,205.821 180.093 C 205.736 179.532,205.667 179.991,205.667 181.111 M147.143 199.444 C 147.146 200.463,147.218 200.836,147.303 200.273 C 147.388 199.710,147.386 198.876,147.298 198.421 C 147.210 197.965,147.140 198.426,147.143 199.444 M179.751 202.407 C 179.753 203.833,179.820 204.371,179.900 203.603 C 179.980 202.834,179.979 201.668,179.897 201.010 C 179.815 200.353,179.750 200.981,179.751 202.407 M206.086 214.630 C 206.086 219.519,206.139 221.467,206.203 218.960 C 206.267 216.453,206.267 212.453,206.202 210.071 C 206.138 207.690,206.085 209.741,206.086 214.630 M238.254 220.185 C 238.257 221.204,238.329 221.576,238.414 221.013 C 238.499 220.450,238.497 219.617,238.409 219.162 C 238.321 218.706,238.251 219.167,238.254 220.185 M209.722 225.450 C 210.282 225.535,211.199 225.535,211.759 225.450 C 212.319 225.366,211.861 225.296,210.741 225.296 C 209.620 225.296,209.162 225.366,209.722 225.450 M328.604 311.111 C 328.604 311.824,328.681 312.116,328.774 311.759 C 328.867 311.403,328.867 310.819,328.774 310.463 C 328.681 310.106,328.604 310.398,328.604 311.111 " stroke="none" fill="#659c87" fill-rule="evenodd"></path><path id="path4" d="M169.537 111.382 C 170.403 111.460,171.819 111.460,172.685 111.382 C 173.551 111.304,172.843 111.241,171.111 111.241 C 169.380 111.241,168.671 111.304,169.537 111.382 M214.167 112.870 C 217.579 112.931,223.162 112.931,226.574 112.870 C 229.986 112.809,227.194 112.759,220.370 112.759 C 213.546 112.759,210.755 112.809,214.167 112.870 M219.744 130.185 C 219.746 131.407,219.816 131.863,219.898 131.197 C 219.980 130.531,219.979 129.531,219.894 128.975 C 219.810 128.418,219.742 128.963,219.744 130.185 M148.619 134.074 C 148.619 134.991,148.692 135.366,148.780 134.907 C 148.868 134.449,148.868 133.699,148.780 133.241 C 148.692 132.782,148.619 133.157,148.619 134.074 M179.391 135.741 C 179.390 137.574,179.452 138.371,179.530 137.511 C 179.608 136.652,179.608 135.152,179.532 134.178 C 179.455 133.204,179.392 133.907,179.391 135.741 M251.524 139.833 C 251.501 140.251,251.315 140.793,251.112 141.038 C 250.909 141.284,251.009 141.253,251.333 140.971 C 251.658 140.689,251.843 140.147,251.745 139.766 C 251.585 139.142,251.563 139.149,251.524 139.833 M220.106 146.852 C 220.109 147.870,220.181 148.243,220.266 147.680 C 220.351 147.117,220.349 146.284,220.261 145.828 C 220.173 145.373,220.103 145.833,220.106 146.852 M220.093 152.407 C 220.098 153.222,220.173 153.512,220.262 153.051 C 220.351 152.591,220.347 151.924,220.254 151.570 C 220.162 151.216,220.089 151.593,220.093 152.407 M206.037 155.556 C 206.037 156.676,206.106 157.134,206.191 156.574 C 206.276 156.014,206.276 155.097,206.191 154.537 C 206.106 153.977,206.037 154.435,206.037 155.556 M220.476 157.963 C 220.479 158.981,220.551 159.354,220.636 158.791 C 220.721 158.228,220.719 157.395,220.631 156.939 C 220.543 156.484,220.474 156.944,220.476 157.963 M244.474 170.712 C 244.458 171.001,244.159 171.584,243.810 172.008 C 243.212 172.734,243.225 172.732,244.039 171.983 C 244.514 171.546,244.812 170.963,244.703 170.687 C 244.541 170.280,244.497 170.285,244.474 170.712 M221.256 182.593 C 221.256 185.343,221.314 186.468,221.386 185.093 C 221.457 183.718,221.457 181.468,221.386 180.093 C 221.314 178.718,221.256 179.843,221.256 182.593 M220.834 193.519 C 220.838 194.333,220.914 194.623,221.003 194.162 C 221.091 193.702,221.088 193.035,220.995 192.681 C 220.903 192.327,220.830 192.704,220.834 193.519 M158.611 193.218 C 158.968 193.311,159.551 193.311,159.907 193.218 C 160.264 193.125,159.972 193.049,159.259 193.049 C 158.546 193.049,158.255 193.125,158.611 193.218 M187.328 217.778 C 187.418 218.389,187.556 218.889,187.635 218.889 C 187.713 218.889,187.778 218.389,187.778 217.778 C 187.778 217.167,187.640 216.667,187.472 216.667 C 187.303 216.667,187.239 217.167,187.328 217.778 M221.222 218.519 C 221.222 219.639,221.292 220.097,221.376 219.537 C 221.461 218.977,221.461 218.060,221.376 217.500 C 221.292 216.940,221.222 217.398,221.222 218.519 M116.944 300.261 C 117.403 300.350,118.153 300.350,118.611 300.261 C 119.069 300.173,118.694 300.101,117.778 300.101 C 116.861 300.101,116.486 300.173,116.944 300.261 M331.950 300.266 C 332.513 300.351,333.346 300.349,333.801 300.261 C 334.257 300.173,333.796 300.103,332.778 300.106 C 331.759 300.109,331.387 300.181,331.950 300.266 M328.234 302.593 C 328.234 303.306,328.310 303.597,328.403 303.241 C 328.497 302.884,328.497 302.301,328.403 301.944 C 328.310 301.588,328.234 301.880,328.234 302.593 M184.537 305.070 C 184.894 305.163,185.477 305.163,185.833 305.070 C 186.190 304.977,185.898 304.901,185.185 304.901 C 184.472 304.901,184.181 304.977,184.537 305.070 M275.649 308.333 C 275.653 309.148,275.729 309.438,275.818 308.977 C 275.906 308.516,275.903 307.850,275.810 307.496 C 275.717 307.142,275.645 307.519,275.649 308.333 M328.612 308.704 C 328.616 309.519,328.692 309.808,328.780 309.348 C 328.869 308.887,328.866 308.220,328.773 307.866 C 328.680 307.512,328.608 307.889,328.612 308.704 M249.731 310.000 C 249.731 310.917,249.803 311.292,249.891 310.833 C 249.979 310.375,249.979 309.625,249.891 309.167 C 249.803 308.708,249.731 309.083,249.731 310.000 M121.204 319.144 C 121.560 319.237,122.144 319.237,122.500 319.144 C 122.856 319.051,122.565 318.975,121.852 318.975 C 121.139 318.975,120.847 319.051,121.204 319.144 M336.204 319.150 C 336.662 319.239,337.412 319.239,337.870 319.150 C 338.329 319.062,337.954 318.990,337.037 318.990 C 336.120 318.990,335.745 319.062,336.204 319.150 M254.921 328.704 C 254.924 329.722,254.995 330.095,255.081 329.532 C 255.166 328.969,255.163 328.136,255.076 327.680 C 254.988 327.225,254.918 327.685,254.921 328.704 " stroke="none" fill="#5c9274" fill-rule="evenodd"></path></g></svg>